<?xml version="1.0" encoding="utf-8"?>
<!-- Generator: Adobe Illustrator 24.3.0, SVG Export Plug-In . SVG Version: 6.00 Build 0)  -->
<svg version="1.1" id="Layer_1" xmlns="http://www.w3.org/2000/svg" xmlns:xlink="http://www.w3.org/1999/xlink" x="0px" y="0px"
	 viewBox="0 0 105.6 105.6" style="enable-background:new 0 0 105.6 105.6;" xml:space="preserve">
<style type="text/css">
	.st0{fill:#FFFEFD;}
</style>
<g>
	<path class="st0" d="M72.7,31.5c2.7,0,4.9-2.2,4.9-4.9c0-2.7-2.2-4.9-4.9-4.9c-2.7,0-4.9,2.2-4.9,4.9C67.8,29.3,70,31.5,72.7,31.5z
		 M72.7,24.8c1,0,1.8,0.8,1.8,1.8c0,1-0.8,1.8-1.8,1.8c-1,0-1.8-0.8-1.8-1.8C70.9,25.6,71.7,24.8,72.7,24.8z"/>
	<path class="st0" d="M67.3,6.8H38.3c-0.9,0-1.5,0.7-1.5,1.5V15c0,0.9,0.7,1.5,1.5,1.5h29.1c0.9,0,1.5-0.7,1.5-1.5V8.4
		C68.8,7.5,68.2,6.8,67.3,6.8z M65.8,13.5h-26V9.9h26V13.5z"/>
	<path class="st0" d="M29.5,24.8h4.2c0.9,0,1.5-0.7,1.5-1.5c0-0.9-0.7-1.5-1.5-1.5h-4.2c-0.9,0-1.5,0.7-1.5,1.5
		C28,24.2,28.7,24.8,29.5,24.8z"/>
	<path class="st0" d="M29.5,31.5h4.2c0.9,0,1.5-0.7,1.5-1.5c0-0.9-0.7-1.5-1.5-1.5h-4.2c-0.9,0-1.5,0.7-1.5,1.5
		C28,30.8,28.7,31.5,29.5,31.5z"/>
	<path class="st0" d="M78.5,0.2H27c-3.1,0-5.7,2.6-5.7,5.7v50.4c0,0.9,0.7,1.5,1.5,1.5c0.9,0,1.5-0.7,1.5-1.5V5.9
		c0-1.4,1.2-2.6,2.6-2.6h51.5c1.4,0,2.6,1.2,2.6,2.6V9c0,0.9,0.7,1.5,1.5,1.5c0.9,0,1.5-0.7,1.5-1.5V5.9C84.2,2.7,81.6,0.2,78.5,0.2
		L78.5,0.2z"/>
	<path class="st0" d="M82.7,14.7c-0.9,0-1.5,0.7-1.5,1.5v56.1c0,1.4-1.2,2.6-2.6,2.6H27c-1.4,0-2.6-1.2-2.6-2.6v-8.8
		c0-0.9-0.7-1.5-1.5-1.5c-0.9,0-1.5,0.7-1.5,1.5v8.8c0,3.1,2.6,5.7,5.7,5.7h1.6v3c0,1.9,1.5,3.4,3.3,3.6v19.2c0,0.9,0.7,1.5,1.5,1.5
		c0.9,0,1.5-0.7,1.5-1.5V84.6h3.6v19.2c0,0.9,0.7,1.5,1.5,1.5c0.9,0,1.5-0.7,1.5-1.5V84.6c1.9-0.2,3.3-1.7,3.3-3.6v-3h15.6v3
		c0,1.9,1.5,3.4,3.3,3.6v5.3c0,0.9,0.7,1.5,1.5,1.5c0.9,0,1.5-0.7,1.5-1.5v-5.2h3.6v19.2c0,0.9,0.7,1.5,1.5,1.5
		c0.9,0,1.5-0.7,1.5-1.5V84.6c1.9-0.2,3.3-1.7,3.3-3.6v-3h1.6c3.1,0,5.7-2.6,5.7-5.7V16.2C84.2,15.4,83.5,14.7,82.7,14.7z M41.9,81
		c0,0.3-0.2,0.5-0.5,0.5h-9.1c-0.3,0-0.5-0.2-0.5-0.5v-3h10.2L41.9,81L41.9,81z M73.9,81c0,0.3-0.2,0.5-0.5,0.5h-7.9c0,0,0,0,0,0
		c0,0,0,0,0,0h-1.2c-0.3,0-0.5-0.2-0.5-0.5v-3h10.2V81z"/>
	<path class="st0" d="M29.5,61.4h6.6c0.9,0,1.5-0.7,1.5-1.5c0-8.3,6.8-15.1,15.1-15.1c8.3,0,15.1,6.8,15.1,15.1
		c0,0.9,0.7,1.5,1.5,1.5H76c0.9,0,1.5-0.7,1.5-1.5C77.6,46.2,66.4,35,52.8,35S28,46.2,28,59.8C28,60.7,28.7,61.4,29.5,61.4z
		 M74.4,58.3h-3.6c-0.4-4.4-2.3-8.3-5.3-11.3l2.3-2.7C71.6,47.9,74,52.8,74.4,58.3z M65.5,42.3L63.2,45c-3-2.1-6.6-3.3-10.5-3.3
		c-3.9,0-7.5,1.2-10.5,3.3L40,42.3c3.6-2.6,8-4.2,12.7-4.2S61.9,39.7,65.5,42.3z M37.7,44.3L40,47c-3,2.9-4.9,6.9-5.3,11.3h-3.6
		C31.5,52.8,34,47.9,37.7,44.3z"/>
	<path class="st0" d="M52.8,48.3c-6.3,0-11.5,5.2-11.5,11.5s5.2,11.5,11.5,11.5s11.5-5.2,11.5-11.5S59.1,48.3,52.8,48.3z M52.8,68.3
		c-4.6,0-8.4-3.8-8.4-8.4c0-4.1,3-7.6,6.9-8.3V54c0,0.9,0.7,1.5,1.5,1.5c0.9,0,1.5-0.7,1.5-1.5v-2.5c3.9,0.7,6.9,4.2,6.9,8.3
		C61.2,64.5,57.4,68.3,52.8,68.3z"/>
	<path class="st0" d="M65.4,95.5c-0.9,0-1.5,0.7-1.5,1.5v6.8c0,0.9,0.7,1.5,1.5,1.5c0.9,0,1.5-0.7,1.5-1.5V97
		C67,96.2,66.3,95.5,65.4,95.5z"/>
</g>
</svg>
