<?xml version="1.0" encoding="utf-8"?>
<!-- Generator: Adobe Illustrator 24.3.0, SVG Export Plug-In . SVG Version: 6.00 Build 0)  -->
<svg version="1.1" id="Layer_1" xmlns="http://www.w3.org/2000/svg" xmlns:xlink="http://www.w3.org/1999/xlink" x="0px" y="0px"
	 viewBox="0 0 105 105" style="enable-background:new 0 0 105 105;" xml:space="preserve">
<style type="text/css">
	.st0{fill:#FFFEFD;}
</style>
<path class="st0" d="M95.2,2c-3.5,0-6.4,3-6.4,6.6v15.2c0,2.5-1,4.9-2.7,6.5c-0.9-2.7-3.4-4.7-6.3-4.7H24.6c0,0,0,0,0,0
	c-1.8,0-3.5,0.7-4.7,2c-0.6,0.7-1.1,1.4-1.5,2.3c-1.4-1.6-2.3-3.7-2.3-6.1v-4c0-0.8-0.6-1.5-1.4-1.5c-0.8,0-1.4,0.7-1.4,1.5v4
	c0,6.6,5.2,12,11.6,12h3.5v7.3h-3.5c-10.3,0-18.7-8.7-18.7-19.4V8.6c0-2,1.6-3.7,3.5-3.7c1.9,0,3.5,1.6,3.5,3.7v5.2
	c0,0.8,0.6,1.5,1.4,1.5c0.8,0,1.4-0.7,1.4-1.5V8.6C16.2,5,13.3,2,9.8,2C6.3,2,3.4,5,3.4,8.6v15.2C3.4,33.6,9.5,42,18,45v56.5
	c0,0.8,0.6,1.5,1.4,1.5h55.1c0.8,0,1.4-0.7,1.4-1.5V89.7H85c0.8,0,1.4-0.7,1.4-1.5v-43c9-2.9,15.2-11.5,15.2-21.4V8.6
	C101.6,5,98.7,2,95.2,2z M83.6,32.6v33.3H72.8c-0.8,0-1.4,0.7-1.4,1.5s0.6,1.5,1.4,1.5h10.7v6.7H31.3v-6.7h35.7
	c0.8,0,1.4-0.7,1.4-1.5s-0.6-1.5-1.4-1.5H31.3V44.7c0,0,0,0,0,0c0,0,0,0,0,0V34.4c0,0,0,0,0,0c0,0,0,0,0,0v-1.8c0-1.5-0.4-2.8-1.2-4
	l49.6,0C81.9,28.6,83.6,30.4,83.6,32.6z M24.9,32.9c-1.5,0-2.8-0.4-4-1c0.1-0.8,0.5-1.5,1.1-2.1c0.7-0.7,1.7-1.2,2.7-1.2
	c2.1,0,3.8,1.8,3.8,4v0.3L24.9,32.9L24.9,32.9z M73.1,100H20.8V45.8c1.3,0.3,2.7,0.4,4.1,0.4h3.5v42c0,0.8,0.6,1.5,1.4,1.5
	c0,0,0,0,0.1,0h43.1L73.1,100L73.1,100z M31.3,86.7v-8.1h52.2v8.1H31.3z M98.7,23.8c0,8.2-5,15.4-12.3,18.2v-8.1
	c3.2-2.2,5.2-6,5.2-10.1V8.6c0-2,1.6-3.7,3.5-3.7c1.9,0,3.5,1.6,3.5,3.7V23.8z"/>
</svg>
