<svg width="139" height="139" viewBox="0 0 139 139" fill="none" xmlns="http://www.w3.org/2000/svg">
<path d="M37.8775 28.9583C38.225 34.1129 39.0937 39.1517 40.4837 43.9587L33.5337 50.9087C31.1592 43.9587 29.6533 36.6033 29.1321 28.9583H37.8775ZM94.9833 98.5742C99.9062 99.9642 104.945 100.833 110.042 101.18V109.81C102.397 109.289 95.0412 107.783 88.0333 105.466L94.9833 98.5742ZM43.4375 17.375H23.1667C19.9812 17.375 17.375 19.9812 17.375 23.1667C17.375 77.5504 61.4496 121.625 115.833 121.625C119.019 121.625 121.625 119.019 121.625 115.833V95.6204C121.625 92.435 119.019 89.8288 115.833 89.8288C108.652 89.8288 101.644 88.6704 95.1571 86.5275C94.5779 86.2958 93.9408 86.2379 93.3617 86.2379C91.8558 86.2379 90.4079 86.8171 89.2496 87.9175L76.5079 100.659C60.1175 92.2612 46.6808 78.8825 38.3408 62.4921L51.0825 49.7504C52.7042 48.1287 53.1675 45.87 52.5304 43.8429C50.3875 37.3563 49.2292 30.4062 49.2292 23.1667C49.2292 19.9812 46.6229 17.375 43.4375 17.375Z" fill="white"/>
</svg>
