<svg width="25" height="25" viewBox="0 0 25 25" fill="none" xmlns="http://www.w3.org/2000/svg">
<path d="M12.4878 0.416748C5.81775 0.416748 0.416504 5.83008 0.416504 12.5001C0.416504 19.1701 5.81775 24.5834 12.4878 24.5834C19.1698 24.5834 24.5832 19.1701 24.5832 12.5001C24.5832 5.83008 19.1698 0.416748 12.4878 0.416748ZM12.4998 22.1667C7.159 22.1667 2.83317 17.8409 2.83317 12.5001C2.83317 7.15925 7.159 2.83341 12.4998 2.83341C17.8407 2.83341 22.1665 7.15925 22.1665 12.5001C22.1665 17.8409 17.8407 22.1667 12.4998 22.1667ZM13.104 6.45842H11.2915V13.7084L17.6353 17.5147L18.5415 16.0284L13.104 12.8022V6.45842Z" fill="#5C5B5C"/>
</svg>
