<svg width="66" height="106" viewBox="0 0 66 106" fill="none" xmlns="http://www.w3.org/2000/svg">
<path d="M45 27.5C45 21.1588 39.6168 16 33 16C26.3832 16 21 21.1588 21 27.5C21 33.8412 26.3832 39 33 39C39.6168 39 45 33.8412 45 27.5ZM24.1376 27.5C24.1376 22.8169 28.1134 19.007 33.0002 19.007C37.8871 19.007 41.8628 22.8169 41.8628 27.5C41.8628 32.1831 37.8871 35.993 33.0002 35.993C28.1134 35.993 24.1376 32.1831 24.1376 27.5Z" fill="url(#paint0_linear)"/>
<path d="M36.561 25.5571C37.9231 24.1973 35.8038 22.0768 34.4399 23.4388L31.4322 26.4413C30.0895 27.7818 32.1799 29.9312 33.5534 28.5596L36.561 25.5571Z" fill="url(#paint1_linear)"/>
<path d="M65.9998 10.4136C65.9998 7.30173 63.939 4.51879 60.9885 3.64631C56.3845 2.28456 46.6266 0 32.9998 0C29.7204 0 26.4313 0.141063 23.2239 0.419047C21.255 0.589732 21.5158 3.68608 23.4871 3.51478C26.6073 3.24425 29.8078 3.10712 32.9998 3.10712C46.2423 3.10712 55.6774 5.31297 60.123 6.62811C61.7709 7.11551 62.9219 8.67218 62.9219 10.4138V62.2713H3.07773V10.4586C3.07773 8.70595 4.2416 7.14513 5.908 6.66332C8.22856 5.99239 10.7426 5.39831 13.3804 4.89744C15.3224 4.52873 14.7562 1.47381 12.8114 1.84397C10.0802 2.36245 7.47241 2.97911 5.06074 3.67655C2.0811 4.53805 0 7.32701 0 10.4588V78.3444C0 81.4563 2.06078 84.2392 5.01129 85.1117C6.17414 85.4558 7.66694 85.8585 9.46671 86.2686V90.0553C9.46671 92.3001 10.8998 94.2425 13.033 94.8886C14.5611 95.3511 16.8925 95.9605 19.9401 96.478V104.503C19.9401 106.498 23.018 106.501 23.018 104.503V96.9297C23.9386 97.0449 24.9073 97.1483 25.9222 97.2359V104.503C25.9222 106.498 29.0001 106.501 29.0001 104.503V97.4414C30.275 97.5021 31.6077 97.5369 33 97.5369C34.344 97.5369 35.678 97.5037 36.9999 97.4385V104.503C36.9999 106.498 40.0778 106.501 40.0778 104.503V97.2249C41.0541 97.1379 42.0225 97.0325 42.982 96.909V104.503C42.982 106.498 46.0599 106.501 46.0599 104.503V96.4453C46.8091 96.3156 47.5527 96.176 48.2887 96.0235C50.2245 95.6225 49.6086 92.5785 47.6699 92.98C36.7553 95.2411 24.6342 95.1566 13.9172 91.9122C13.0962 91.6636 12.5446 90.9173 12.5446 90.0551V86.9105C17.7002 87.893 24.6163 88.758 33 88.758C41.2534 88.758 48.2239 87.8638 53.4554 86.8577V90.0259C53.4554 92.0207 56.5333 92.0236 56.5333 90.0259V86.2122C58.2953 85.8112 59.7746 85.4183 60.9393 85.0817C63.9189 84.2202 66 81.4312 66 78.2995V10.4136H65.9998ZM60.0916 82.0945C55.4983 83.4227 45.8707 85.6507 32.9998 85.6507C19.7573 85.6507 10.3222 83.4448 5.8766 82.1297C4.22868 81.6423 3.07773 80.0856 3.07773 78.344V65.378H62.9219V78.2995C62.9219 80.0521 61.758 81.6127 60.0916 82.0945Z" fill="url(#paint2_linear)"/>
<path d="M22.5001 73C20.5016 73 20.4983 76 22.5001 76C24.4983 76 24.5016 73 22.5001 73Z" fill="url(#paint3_linear)"/>
<path d="M32.5 73C30.5017 73 30.4983 76 32.5 76C34.4983 76 34.5017 73 32.5 73Z" fill="url(#paint4_linear)"/>
<path d="M43.5 73C41.5017 73 41.4983 76 43.5 76C45.4983 76 45.5017 73 43.5 73Z" fill="url(#paint5_linear)"/>
<defs>
<linearGradient id="paint0_linear" x1="33" y1="16" x2="33" y2="39" gradientUnits="userSpaceOnUse">
<stop stop-color="#F1B413"/>
<stop offset="1" stop-color="#FED606"/>
</linearGradient>
<linearGradient id="paint1_linear" x1="34" y1="23" x2="34" y2="29" gradientUnits="userSpaceOnUse">
<stop stop-color="#F1B413"/>
<stop offset="1" stop-color="#FED606"/>
</linearGradient>
<linearGradient id="paint2_linear" x1="33" y1="0" x2="33" y2="106" gradientUnits="userSpaceOnUse">
<stop stop-color="#F1B413"/>
<stop offset="1" stop-color="#FED606"/>
</linearGradient>
<linearGradient id="paint3_linear" x1="22.5" y1="73" x2="22.5" y2="76" gradientUnits="userSpaceOnUse">
<stop stop-color="#F1B413"/>
<stop offset="1" stop-color="#FED606"/>
</linearGradient>
<linearGradient id="paint4_linear" x1="32.5" y1="73" x2="32.5" y2="76" gradientUnits="userSpaceOnUse">
<stop stop-color="#F1B413"/>
<stop offset="1" stop-color="#FED606"/>
</linearGradient>
<linearGradient id="paint5_linear" x1="43.5" y1="73" x2="43.5" y2="76" gradientUnits="userSpaceOnUse">
<stop stop-color="#F1B413"/>
<stop offset="1" stop-color="#FED606"/>
</linearGradient>
</defs>
</svg>
