<svg width="106" height="106" viewBox="0 0 106 106" fill="none" xmlns="http://www.w3.org/2000/svg">
<path d="M104.447 21.3376C105.305 21.3376 106 20.6423 106 19.7841V12.5743C106 10.5795 102.895 10.5766 102.895 12.5743V14.6254H97.9301V12.5743C97.9301 11.7161 97.2351 11.0208 96.3774 11.0208H92.3912V4.95358C92.3912 2.22201 90.17 0 87.4401 0H84.3106C81.5805 0 79.3594 2.22221 79.3594 4.95358V11.0208H75.9536V5.04369C75.9536 2.31211 73.7323 0.0898994 71.0024 0.0898994H67.8729C65.1428 0.0898994 62.922 2.31232 62.922 5.04369V11.0208H59.5159V5.04369C59.5159 2.31211 57.2949 0.0898994 54.5649 0.0898994H51.4353C48.7051 0.0898994 46.4841 2.31232 46.4841 5.04369V11.0208H43.078V5.04369C43.078 2.31211 40.857 0.0898994 38.1269 0.0898994H34.9972C32.2671 0.0898994 30.046 2.31232 30.046 5.04369V11.0208H26.64V5.04369C26.64 2.31211 24.4189 0.0898994 21.6888 0.0898994H18.5597C15.8298 0.0898994 13.6088 2.31232 13.6088 5.04369V11.0208H10.4046C9.11724 11.0208 8.06987 12.0687 8.06987 13.3565V19.0015C8.06987 20.2897 9.11724 21.3374 10.4046 21.3374H13.6088V85.3421H8.69531V83.7885C8.69531 82.9303 8.0001 82.2349 7.14258 82.2349H5.90039V78.5642C7.45271 78.1139 8.5918 76.6813 8.5918 74.985C8.5918 72.9291 6.92002 71.2564 4.86523 71.2564H3.83008C1.77529 71.2564 0.103516 72.9291 0.103516 74.985C0.103516 76.6813 1.2426 78.1139 2.79492 78.5642V82.2349H1.55273C0.695211 82.2349 0 82.9303 0 83.7885V93.0063C0 94.7846 1.07325 96.3149 2.60466 96.9886V104.503C2.60466 106.497 5.71013 106.5 5.71013 104.503V97.1342C7.44153 96.5608 8.69531 94.9286 8.69531 93.0065V88.4494H13.6088V94.3239C13.6088 97.0555 15.8298 99.2775 18.5597 99.2775H21.6894C24.4195 99.2775 26.6406 97.0553 26.6406 94.3239V92.6558H30.0467V94.3239C30.0467 97.0524 32.2627 99.2723 34.9885 99.2773V104.503C34.9885 106.498 38.094 106.501 38.094 104.503V99.2775H38.1273C40.8574 99.2775 43.0784 97.0553 43.0784 94.3239V92.6558H46.4845V94.3239C46.4845 97.0555 48.7056 99.2775 51.4357 99.2775H54.5654C57.2955 99.2775 59.5163 97.0553 59.5163 94.3239V92.6558H62.9224V94.3239C62.9224 97.0555 65.1434 99.2775 67.8733 99.2775H67.9062V104.503C67.9062 106.498 71.0117 106.501 71.0117 104.503V99.2773C73.7375 99.2723 75.9536 97.0524 75.9536 94.3239V92.6558H79.3594V94.234C79.3594 96.9656 81.5807 99.1876 84.3106 99.1876H87.4401C90.1702 99.1876 92.3912 96.9654 92.3912 94.234V88.4492H97.3047V93.0063C97.3047 94.9284 98.5585 96.5606 100.29 97.1342V104.503C100.29 106.497 103.395 106.5 103.395 104.503V96.9886C104.927 96.3149 106 94.7846 106 93.0063V83.7885C106 82.9303 105.305 82.2349 104.447 82.2349H103.205V78.5642C104.757 78.1139 105.896 76.6813 105.896 74.985C105.896 72.9291 104.225 71.2564 102.17 71.2564H101.135C99.08 71.2564 97.4082 72.9291 97.4082 74.985C97.4082 76.6813 98.5473 78.1139 100.1 78.5642V82.2349H98.8574C97.9997 82.2349 97.3047 82.9303 97.3047 83.7885V85.3421H92.3914V53.4423C92.3914 51.445 89.286 51.4154 89.286 53.4423V94.234C89.286 95.2521 88.458 96.0805 87.4403 96.0805H84.3108C83.293 96.0805 82.4651 95.2521 82.4651 94.234V4.95358C82.4651 3.93548 83.293 3.10712 84.3108 3.10712H87.4403C88.458 3.10712 89.286 3.93548 89.286 4.95358V43.914C89.286 45.9112 92.3914 45.9409 92.3914 43.914V21.3376H96.3776C97.2353 21.3376 97.9303 20.6423 97.9303 19.7841V17.7328H102.895V19.7841C102.895 20.6421 103.59 21.3376 104.447 21.3376ZM3.83008 74.3638H4.86523C5.20766 74.3638 5.48633 74.6426 5.48633 74.9852C5.48633 75.3278 5.20766 75.6066 4.86523 75.6066H3.83008C3.48765 75.6066 3.20898 75.3278 3.20898 74.9852C3.20898 74.6426 3.48765 74.3638 3.83008 74.3638ZM5.58984 93.0065C5.58984 93.6919 5.03272 94.2493 4.34766 94.2493C3.66259 94.2493 3.10547 93.6919 3.10547 93.0065V85.3423H5.58984V93.0065ZM101.135 74.3638H102.17C102.512 74.3638 102.791 74.6426 102.791 74.9852C102.791 75.3278 102.512 75.6066 102.17 75.6066H101.135C100.792 75.6066 100.514 75.3278 100.514 74.9852C100.514 74.6426 100.792 74.3638 101.135 74.3638ZM102.895 85.3423V93.0065C102.895 93.6919 102.337 94.2493 101.652 94.2493C100.967 94.2493 100.41 93.6919 100.41 93.0065V85.3423H102.895ZM79.3594 14.1279V18.2305H75.9536V14.1279H79.3594ZM71.0024 96.1704H67.8729C66.8554 96.1704 66.0274 95.342 66.0274 94.3239V5.04369C66.0274 4.02538 66.8554 3.19702 67.8729 3.19702H71.0024C72.0202 3.19702 72.8481 4.02538 72.8481 5.04369V94.3241C72.8481 95.342 72.0202 96.1704 71.0024 96.1704ZM54.5649 96.1704H51.4353C50.4175 96.1704 49.5896 95.342 49.5896 94.3239V73.9495C49.5896 71.9522 46.4841 71.9226 46.4841 73.9495V82.3391H43.078V21.3376H46.4841V65.4567C46.4841 67.4539 49.5896 67.4834 49.5896 65.4567V5.04369C49.5896 4.02538 50.4175 3.19702 51.4353 3.19702H54.5649C55.5825 3.19702 56.4104 4.02538 56.4104 5.04369V94.3241C56.4104 95.342 55.5825 96.1704 54.5649 96.1704ZM38.1271 96.1704H34.9974C33.9796 96.1704 33.1517 95.342 33.1517 94.3239V5.04369C33.1517 4.02538 33.9796 3.19702 34.9974 3.19702H38.1271C39.1448 3.19702 39.9728 4.02538 39.9728 5.04369V94.3241C39.9728 95.342 39.1448 96.1704 38.1271 96.1704ZM25.0876 34.2819C24.2301 34.2819 23.5349 34.9773 23.5349 35.8355V94.3239C23.5349 95.342 22.707 96.1704 21.6892 96.1704H18.5597C17.5422 96.1704 16.7143 95.342 16.7143 94.3239V5.04369C16.7143 4.02538 17.5422 3.19702 18.5597 3.19702H21.6894C22.7072 3.19702 23.5351 4.02538 23.5351 5.04369V26.7212C23.5351 28.716 26.6406 28.7189 26.6406 26.7212V21.3376H30.0467V82.3391H26.6406V35.8355C26.6404 34.9773 25.9452 34.2819 25.0876 34.2819ZM59.5159 21.3376H62.922V82.3391H59.5159V21.3376ZM75.9536 21.3376H79.3594V82.3391H75.9536V21.3376ZM62.922 14.1279V18.2305H59.5159V14.1279H62.922ZM46.4841 14.1279V18.2305H43.078V14.1279H46.4841ZM30.0464 14.1279V18.2305H26.6404V14.1279H30.0464ZM11.1753 18.2305V14.1279H13.6088V18.2305H11.1753ZM26.6404 89.5489V85.4462H30.0464V89.5489H26.6404ZM43.0782 89.5489V85.4462H46.4843V89.5489H43.0782ZM59.5159 89.5489V85.4462H62.922V89.5489H59.5159ZM75.9536 89.5489V85.4462H79.3594V89.5489H75.9536ZM94.8247 18.2305H92.3912V14.1279H94.8247V18.2305Z" fill="url(#paint0_linear)"/>
<defs>
<linearGradient id="paint0_linear" x1="53" y1="0" x2="53" y2="106" gradientUnits="userSpaceOnUse">
<stop stop-color="#F1BC2E"/>
<stop offset="1" stop-color="#FDD625"/>
</linearGradient>
</defs>
</svg>
