<svg width="139" height="139" viewBox="0 0 139 139" fill="none" xmlns="http://www.w3.org/2000/svg">
<path d="M125.504 105.235L94.8079 74.5387H89.0741L74.3633 89.2495V94.9833L105.059 125.679C107.318 127.938 110.967 127.938 113.225 125.679L125.504 113.401C127.762 111.2 127.762 107.493 125.504 105.235ZM109.113 113.459L84.5566 88.902L88.6687 84.79L113.225 109.347L109.113 113.459Z" fill="white"/>
<path d="M100.427 59.017L108.593 50.8508L120.872 63.1291C127.648 56.3529 127.648 45.3487 120.872 38.5725L100.369 18.07L92.203 26.2362V9.90371L88.1488 5.79163L67.6463 26.2941L71.7584 30.4062H88.1488L79.9826 38.5725L86.1218 44.7116L69.3838 61.4495L45.4643 37.53V29.3058L27.9734 11.815L11.583 28.2054L29.1318 45.7541H37.298L61.2176 69.6737L56.2947 74.5966H44.0163L13.3205 105.292C11.0618 107.551 11.0618 111.2 13.3205 113.459L25.5988 125.737C27.8576 127.996 31.5063 127.996 33.7651 125.737L64.4609 95.0412V82.7629L94.288 52.9358L100.427 59.017ZM54.2097 88.8441L29.653 113.401L25.5409 109.289L50.0976 84.732L54.2097 88.8441Z" fill="white"/>
</svg>
