<?xml version="1.0" encoding="utf-8"?>
<!-- Generator: Adobe Illustrator 24.3.0, SVG Export Plug-In . SVG Version: 6.00 Build 0)  -->
<svg version="1.1" id="Layer_1" xmlns="http://www.w3.org/2000/svg" xmlns:xlink="http://www.w3.org/1999/xlink" x="0px" y="0px"
	 viewBox="0 0 106 106" style="enable-background:new 0 0 106 106;" xml:space="preserve">
<style type="text/css">
	.st0{fill:url(#SVGID_1_);}
	.st1{fill:url(#SVGID_2_);}
	.st2{fill:url(#SVGID_3_);}
	.st3{fill:url(#SVGID_4_);}
	.st4{fill:url(#SVGID_5_);}
	.st5{fill:url(#SVGID_6_);}
</style>
<g>
	<linearGradient id="SVGID_1_" gradientUnits="userSpaceOnUse" x1="41" y1="27.6957" x2="65" y2="27.6957">
		<stop  offset="0" style="stop-color:#F1B413"/>
		<stop  offset="1" style="stop-color:#FED606"/>
	</linearGradient>
	<path class="st0" d="M65,27.7c0-6.3-5.4-11.4-12-11.4s-12,5.1-12,11.4s5.4,11.4,12,11.4S65,34,65,27.7z M44.1,27.7
		c0-4.6,4-8.4,8.9-8.4c4.9,0,8.9,3.8,8.9,8.4s-4,8.4-8.9,8.4C48.1,36.1,44.1,32.3,44.1,27.7z"/>
	<linearGradient id="SVGID_2_" gradientUnits="userSpaceOnUse" x1="51" y1="26.2072" x2="57" y2="26.2072">
		<stop  offset="0" style="stop-color:#F1B413"/>
		<stop  offset="1" style="stop-color:#FED606"/>
	</linearGradient>
	<path class="st1" d="M56.6,25.8c1.4-1.3-0.8-3.5-2.1-2.1l-3,3c-1.3,1.3,0.7,3.5,2.1,2.1L56.6,25.8z"/>
	<linearGradient id="SVGID_3_" gradientUnits="userSpaceOnUse" x1="20" y1="52.9998" x2="86" y2="52.9998">
		<stop  offset="0" style="stop-color:#F1B413"/>
		<stop  offset="1" style="stop-color:#FED606"/>
	</linearGradient>
	<path class="st2" d="M86,10.7c0-3.1-2.1-5.8-5-6.7c-4.6-1.4-14.4-3.6-28-3.6c-3.3,0-6.6,0.1-9.8,0.4c-2,0.2-1.7,3.2,0.3,3.1
		c3.1-0.3,6.3-0.4,9.5-0.4c13.2,0,22.7,2.2,27.1,3.5c1.6,0.5,2.8,2,2.8,3.8v51.5H23.1V10.8c0-1.7,1.2-3.3,2.8-3.8
		c2.3-0.7,4.8-1.3,7.5-1.8c1.9-0.4,1.4-3.4-0.6-3c-2.7,0.5-5.3,1.1-7.8,1.8c-3,0.9-5.1,3.6-5.1,6.7v67.4c0,3.1,2.1,5.8,5,6.7
		c1.2,0.3,2.7,0.7,4.5,1.1v3.8c0,2.2,1.4,4.2,3.6,4.8c1.5,0.5,3.9,1.1,6.9,1.6v8c0,2,3.1,2,3.1,0v-7.5c0.9,0.1,1.9,0.2,2.9,0.3v7.2
		c0,2,3.1,2,3.1,0v-7c1.3,0.1,2.6,0.1,4,0.1c1.3,0,2.7,0,4-0.1v7c0,2,3.1,2,3.1,0v-7.2c1-0.1,1.9-0.2,2.9-0.3v7.5c0,2,3.1,2,3.1,0
		v-8c0.7-0.1,1.5-0.3,2.2-0.4c1.9-0.4,1.3-3.4-0.6-3c-10.9,2.2-23,2.2-33.8-1.1c-0.8-0.2-1.4-1-1.4-1.8v-3.1
		c5.2,1,12.1,1.8,20.5,1.8c8.3,0,15.2-0.9,20.5-1.9v3.1c0,2,3.1,2,3.1,0V86c1.8-0.4,3.2-0.8,4.4-1.1c3-0.9,5.1-3.6,5.1-6.7L86,10.7
		L86,10.7z M80.1,81.9c-4.6,1.3-14.2,3.5-27.1,3.5c-13.2,0-22.7-2.2-27.1-3.5c-1.6-0.5-2.8-2-2.8-3.8V65.3h59.8v12.8
		C82.9,79.8,81.8,81.4,80.1,81.9z"/>
	<linearGradient id="SVGID_4_" gradientUnits="userSpaceOnUse" x1="41" y1="74.3343" x2="44" y2="74.3343">
		<stop  offset="0" style="stop-color:#F1B413"/>
		<stop  offset="1" style="stop-color:#FED606"/>
	</linearGradient>
	<path class="st3" d="M42.5,72.8c-2,0-2,3,0,3C44.5,75.8,44.5,72.8,42.5,72.8z"/>
	<linearGradient id="SVGID_5_" gradientUnits="userSpaceOnUse" x1="51" y1="74.3343" x2="54" y2="74.3343">
		<stop  offset="0" style="stop-color:#F1B413"/>
		<stop  offset="1" style="stop-color:#FED606"/>
	</linearGradient>
	<path class="st4" d="M52.5,72.8c-2,0-2,3,0,3C54.5,75.8,54.5,72.8,52.5,72.8z"/>
	<linearGradient id="SVGID_6_" gradientUnits="userSpaceOnUse" x1="62" y1="74.3343" x2="65" y2="74.3343">
		<stop  offset="0" style="stop-color:#F1B413"/>
		<stop  offset="1" style="stop-color:#FED606"/>
	</linearGradient>
	<path class="st5" d="M63.5,72.8c-2,0-2,3,0,3C65.5,75.8,65.5,72.8,63.5,72.8z"/>
</g>
</svg>
