<?xml version="1.0" encoding="utf-8"?>
<!-- Generator: Adobe Illustrator 24.3.0, SVG Export Plug-In . SVG Version: 6.00 Build 0)  -->
<svg version="1.1" id="Layer_1" xmlns="http://www.w3.org/2000/svg" xmlns:xlink="http://www.w3.org/1999/xlink" x="0px" y="0px"
	 viewBox="0 0 106 106" style="enable-background:new 0 0 106 106;" xml:space="preserve">
<style type="text/css">
	.st0{fill:url(#SVGID_1_);}
</style>
<linearGradient id="SVGID_1_" gradientUnits="userSpaceOnUse" x1="0.4074" y1="53.4076" x2="105.5926" y2="53.4076">
	<stop  offset="0" style="stop-color:#F1B413"/>
	<stop  offset="1" style="stop-color:#FED606"/>
</linearGradient>
<path class="st0" d="M104.1,22c0.9,0,1.5-0.7,1.5-1.5v-7.2c0-2-3.1-2-3.1,0v2h-4.9v-2c0-0.9-0.7-1.5-1.5-1.5h-4v-6
	c0-2.7-2.2-4.9-4.9-4.9h-3.1c-2.7,0-4.9,2.2-4.9,4.9v6h-3.4V5.8c0-2.7-2.2-4.9-4.9-4.9h-3.1c-2.7,0-4.9,2.2-4.9,4.9v5.9h-3.4V5.8
	c0-2.7-2.2-4.9-4.9-4.9h-3.1c-2.7,0-4.9,2.2-4.9,4.9v5.9h-3.4V5.8c0-2.7-2.2-4.9-4.9-4.9h-3.1c-2.7,0-4.9,2.2-4.9,4.9v5.9h-3.4V5.8
	c0-2.7-2.2-4.9-4.9-4.9h-3.1c-2.7,0-4.9,2.2-4.9,4.9v5.9h-3.2c-1.3,0-2.3,1-2.3,2.3v5.6c0,1.3,1,2.3,2.3,2.3h3.2v63.5H9V84
	c0-0.9-0.7-1.5-1.5-1.5H6.3v-3.6c1.5-0.4,2.7-1.9,2.7-3.6c0-2-1.7-3.7-3.7-3.7h-1c-2,0-3.7,1.7-3.7,3.7c0,1.7,1.1,3.1,2.7,3.6v3.6
	H1.9c-0.9,0-1.5,0.7-1.5,1.5v9.1c0,1.8,1.1,3.3,2.6,4v7.5c0,2,3.1,2,3.1,0v-7.3c1.7-0.6,3-2.2,3-4.1v-4.5h4.9v5.8
	c0,2.7,2.2,4.9,4.9,4.9h3.1c2.7,0,4.9-2.2,4.9-4.9v-1.7h3.4v1.7c0,2.7,2.2,4.9,4.9,4.9v5.2c0,2,3.1,2,3.1,0v-5.2h0
	c2.7,0,4.9-2.2,4.9-4.9v-1.7h3.4v1.7c0,2.7,2.2,4.9,4.9,4.9h3.1c2.7,0,4.9-2.2,4.9-4.9v-1.7h3.4v1.7c0,2.7,2.2,4.9,4.9,4.9h0v5.2
	c0,2,3.1,2,3.1,0v-5.2c2.7,0,4.9-2.2,4.9-4.9v-1.7h3.4v1.6c0,2.7,2.2,4.9,4.9,4.9h3.1c2.7,0,4.9-2.2,4.9-4.9v-5.7H97v4.5
	c0,1.9,1.2,3.5,3,4.1v7.3c0,2,3.1,2,3.1,0v-7.5c1.5-0.7,2.6-2.2,2.6-4V84c0-0.9-0.7-1.5-1.5-1.5h-1.2v-3.6c1.5-0.4,2.7-1.9,2.7-3.6
	c0-2-1.7-3.7-3.7-3.7h-1c-2,0-3.7,1.7-3.7,3.7c0,1.7,1.1,3.1,2.7,3.6v3.6h-1.2c-0.9,0-1.5,0.7-1.5,1.5v1.5h-4.9V53.8
	c0-2-3.1-2-3.1,0v40.5c0,1-0.8,1.8-1.8,1.8h-3.1c-1,0-1.8-0.8-1.8-1.8V5.7c0-1,0.8-1.8,1.8-1.8h3.1c1,0,1.8,0.8,1.8,1.8v38.7
	c0,2,3.1,2,3.1,0V22h4c0.9,0,1.5-0.7,1.5-1.5v-2h4.9v2C102.5,21.3,103.2,22,104.1,22z M4.2,74.6h1c0.3,0,0.6,0.3,0.6,0.6
	s-0.3,0.6-0.6,0.6h-1c-0.3,0-0.6-0.3-0.6-0.6S3.9,74.6,4.2,74.6z M6,93.1c0,0.7-0.6,1.2-1.2,1.2c-0.7,0-1.2-0.6-1.2-1.2v-7.6H6V93.1
	z M100.8,74.6h1c0.3,0,0.6,0.3,0.6,0.6s-0.3,0.6-0.6,0.6h-1c-0.3,0-0.6-0.3-0.6-0.6S100.4,74.6,100.8,74.6z M102.5,85.5v7.6
	c0,0.7-0.6,1.2-1.2,1.2s-1.2-0.6-1.2-1.2v-7.6H102.5z M79.2,14.8v4.1h-3.4v-4.1H79.2z M70.9,96.2h-3.1c-1,0-1.8-0.8-1.8-1.8V5.8
	c0-1,0.8-1.8,1.8-1.8h3.1c1,0,1.8,0.8,1.8,1.8v88.6C72.7,95.4,71.9,96.2,70.9,96.2z M54.6,96.2h-3.1c-1,0-1.8-0.8-1.8-1.8V74.2
	c0-2-3.1-2-3.1,0v8.3h-3.4V22h3.4v43.8c0,2,3.1,2,3.1,0V5.8c0-1,0.8-1.8,1.8-1.8h3.1c1,0,1.8,0.8,1.8,1.8v88.6
	C56.4,95.4,55.6,96.2,54.6,96.2z M38.2,96.2h-3.1c-1,0-1.8-0.8-1.8-1.8V5.8c0-1,0.8-1.8,1.8-1.8h3.1c1,0,1.8,0.8,1.8,1.8v88.6
	C40.1,95.4,39.3,96.2,38.2,96.2z M25.3,34.8c-0.9,0-1.5,0.7-1.5,1.5v58c0,1-0.8,1.8-1.8,1.8h-3.1c-1,0-1.8-0.8-1.8-1.8V5.8
	c0-1,0.8-1.8,1.8-1.8h3.1c1,0,1.8,0.8,1.8,1.8v21.5c0,2,3.1,2,3.1,0V22h3.4v60.5h-3.4V36.4C26.8,35.5,26.2,34.8,25.3,34.8z M59.5,22
	h3.4v60.5h-3.4V22z M75.8,22h3.4v60.5h-3.4V22z M62.8,14.8v4.1h-3.4v-4.1H62.8z M46.5,14.8v4.1h-3.4v-4.1H46.5z M30.2,14.8v4.1h-3.4
	v-4.1H30.2z M11.5,18.9v-4.1h2.4v4.1H11.5z M26.8,89.7v-4.1h3.4v4.1H26.8z M43.2,89.7v-4.1h3.4v4.1H43.2z M59.5,89.7v-4.1h3.4v4.1
	H59.5z M75.8,89.7v-4.1h3.4v4.1H75.8z M94.5,18.9h-2.4v-4.1h2.4V18.9z"/>
</svg>
