<svg width="139" height="139" viewBox="0 0 139 139" fill="none" xmlns="http://www.w3.org/2000/svg">
<path d="M89.7708 81.0833H85.1954L83.5738 79.5196C89.2496 72.9171 92.6667 64.3454 92.6667 55.0208C92.6667 34.2288 75.8129 17.375 55.0208 17.375C34.2288 17.375 17.375 34.2288 17.375 55.0208C17.375 75.8129 34.2288 92.6667 55.0208 92.6667C64.3454 92.6667 72.9171 89.2496 79.5196 83.5738L81.0833 85.1954V89.7708L110.042 118.671L118.671 110.042L89.7708 81.0833ZM55.0208 81.0833C40.5996 81.0833 28.9583 69.4421 28.9583 55.0208C28.9583 40.5996 40.5996 28.9583 55.0208 28.9583C69.4421 28.9583 81.0833 40.5996 81.0833 55.0208C81.0833 69.4421 69.4421 81.0833 55.0208 81.0833Z" fill="white"/>
</svg>
