<svg width="24" height="24" viewBox="0 0 24 24" fill="none" xmlns="http://www.w3.org/2000/svg">
<path d="M22.7432 3.87244C22.5223 3.27405 22.17 2.73242 21.7123 2.28784C21.2677 1.83008 20.7264 1.47778 20.1277 1.25696C19.6421 1.06836 18.9126 0.843872 17.569 0.782715C16.1155 0.716431 15.6797 0.702148 12 0.702148C8.31995 0.702148 7.88416 0.716064 6.43103 0.782349C5.0874 0.843872 4.35754 1.06836 3.87231 1.25696C3.27356 1.47778 2.73193 1.83008 2.28772 2.28784C1.82996 2.73242 1.47766 3.27368 1.25647 3.87244C1.06787 4.35803 0.843384 5.08789 0.782227 6.43152C0.715942 7.88464 0.70166 8.32043 0.70166 12.0005C0.70166 15.6802 0.715942 16.116 0.782227 17.5695C0.843384 18.9131 1.06787 19.6426 1.25647 20.1282C1.47766 20.7269 1.82959 21.2682 2.28735 21.7128C2.73193 22.1705 3.27319 22.5228 3.87195 22.7437C4.35754 22.9326 5.0874 23.1571 6.43103 23.2183C7.88416 23.2845 8.31958 23.2985 11.9996 23.2985C15.6801 23.2985 16.1158 23.2845 17.5686 23.2183C18.9122 23.1571 19.6421 22.9326 20.1277 22.7437C21.3296 22.28 22.2795 21.3301 22.7432 20.1282C22.9318 19.6426 23.1562 18.9131 23.2178 17.5695C23.2841 16.116 23.298 15.6802 23.298 12.0005C23.298 8.32043 23.2841 7.88464 23.2178 6.43152C23.1566 5.08789 22.9321 4.35803 22.7432 3.87244ZM12 19.0768C8.09143 19.0768 4.92297 15.9087 4.92297 12.0001C4.92297 8.09155 8.09143 4.92346 12 4.92346C15.9082 4.92346 19.0767 8.09155 19.0767 12.0001C19.0767 15.9087 15.9082 19.0768 12 19.0768ZM19.3564 6.29749C18.4431 6.29749 17.7026 5.55701 17.7026 4.64368C17.7026 3.73035 18.4431 2.98987 19.3564 2.98987C20.2698 2.98987 21.0103 3.73035 21.0103 4.64368C21.0099 5.55701 20.2698 6.29749 19.3564 6.29749Z" fill="url(#paint0_linear)"/>
<defs>
<linearGradient id="paint0_linear" x1="11.9998" y1="0.702148" x2="11.9998" y2="23.2985" gradientUnits="userSpaceOnUse">
<stop stop-color="#F2B513"/>
<stop offset="1" stop-color="#FDD725"/>
</linearGradient>
</defs>
</svg>
