<svg width="47" height="48" viewBox="0 0 47 48" fill="none" xmlns="http://www.w3.org/2000/svg">
<path d="M23.5 0C10.5233 0 0 10.6143 0 23.7031C0 36.792 10.5233 47.4062 23.5 47.4062C36.4767 47.4062 47 36.792 47 23.7031C47 10.6143 36.4767 0 23.5 0ZM16.6712 35.8325H10.9479V18.4649H16.6712V35.8325ZM13.8097 16.0934H13.7724C11.8518 16.0934 10.6097 14.7598 10.6097 13.0932C10.6097 11.389 11.8898 10.0923 13.8477 10.0923C15.8056 10.0923 17.0104 11.389 17.0477 13.0932C17.0477 14.7598 15.8056 16.0934 13.8097 16.0934ZM37.3083 35.8325H31.5857V26.5412C31.5857 24.2062 30.757 22.6137 28.6862 22.6137C27.1052 22.6137 26.1635 23.6879 25.7497 24.7249C25.5984 25.096 25.5615 25.6146 25.5615 26.1336V35.8325H19.8385C19.8385 35.8325 19.9135 20.0943 19.8385 18.4649H25.5615V20.924C26.322 19.7405 27.6829 18.0573 30.7193 18.0573C34.4848 18.0573 37.3083 20.5395 37.3083 25.8739V35.8325Z" fill="url(#paint0_linear)"/>
<defs>
<linearGradient id="paint0_linear" x1="23.5" y1="0" x2="23.5" y2="47.4062" gradientUnits="userSpaceOnUse">
<stop stop-color="#F0C113"/>
<stop offset="1" stop-color="#FDD725"/>
</linearGradient>
</defs>
</svg>
