<svg width="48" height="48" viewBox="0 0 48 48" fill="none" xmlns="http://www.w3.org/2000/svg">
<path d="M24 0C10.7472 0 0 10.7472 0 24C0 37.2528 10.7472 48 24 48C37.2528 48 48 37.2528 48 24C48 10.7472 37.2528 0 24 0ZM37.6981 29.6818C37.6315 31.1488 37.3982 32.1504 37.0576 33.0271C36.3417 34.8783 34.8783 36.3417 33.0271 37.0576C32.1508 37.3982 31.1488 37.6311 29.6821 37.6981C28.2125 37.7651 27.743 37.7812 24.0004 37.7812C20.2573 37.7812 19.7882 37.7651 18.3182 37.6981C16.8516 37.6311 15.8496 37.3982 14.9733 37.0576C14.0533 36.7115 13.2206 36.1692 12.5321 35.4679C11.8312 34.7798 11.2888 33.9467 10.9427 33.0271C10.6022 32.1508 10.3689 31.1488 10.3022 29.6821C10.2345 28.2122 10.2188 27.7427 10.2188 24C10.2188 20.2573 10.2345 19.7878 10.3019 18.3182C10.3685 16.8512 10.6014 15.8496 10.942 14.9729C11.2881 14.0533 11.8308 13.2202 12.5321 12.5321C13.2202 11.8308 14.0533 11.2885 14.9729 10.9424C15.8496 10.6018 16.8512 10.3689 18.3182 10.3019C19.7878 10.2349 20.2573 10.2188 24 10.2188C27.7427 10.2188 28.2122 10.2349 29.6818 10.3022C31.1488 10.3689 32.1504 10.6018 33.0271 10.942C33.9467 11.2881 34.7798 11.8308 35.4683 12.5321C36.1692 13.2206 36.7119 14.0533 37.0576 14.9729C37.3986 15.8496 37.6315 16.8512 37.6985 18.3182C37.7655 19.7878 37.7812 20.2573 37.7812 24C37.7812 27.7427 37.7655 28.2122 37.6981 29.6818Z" fill="url(#paint0_linear)"/>
<defs>
<linearGradient id="paint0_linear" x1="24" y1="0" x2="24" y2="48" gradientUnits="userSpaceOnUse">
<stop stop-color="#F2B513"/>
<stop offset="1" stop-color="#FDD725"/>
</linearGradient>
</defs>
</svg>
