<svg width="47" height="48" viewBox="0 0 47 48" fill="none" xmlns="http://www.w3.org/2000/svg">
<path d="M47 23.7031C47 10.6109 36.4801 0 23.5 0C10.5199 0 0 10.6109 0 23.7031C0 36.7954 10.5199 47.4062 23.5 47.4062C23.6377 47.4062 23.7754 47.4062 23.9131 47.397V28.953H18.8643V23.018H23.9131V18.6477C23.9131 13.583 26.9791 10.8238 31.4588 10.8238C33.6068 10.8238 35.452 10.9812 35.9844 11.0553V16.3515H32.9C30.4674 16.3515 29.99 17.5181 29.99 19.231V23.0087H35.8191L35.0572 28.9437H29.99V46.4896C39.8123 43.6471 47 34.5269 47 23.7031Z" fill="url(#paint0_linear)"/>
<defs>
<linearGradient id="paint0_linear" x1="23.5" y1="0" x2="23.5" y2="47.4062" gradientUnits="userSpaceOnUse">
<stop stop-color="#F0C113"/>
<stop offset="1" stop-color="#FDD725"/>
</linearGradient>
</defs>
</svg>
