<svg width="15" height="13" viewBox="0 0 15 13" fill="none" xmlns="http://www.w3.org/2000/svg">
<path d="M5.87917 3.32917C5.60292 3.60542 5.60292 4.04458 5.87917 4.32083L7.225 5.66667H0.708333C0.31875 5.66667 0 5.98542 0 6.375C0 6.76458 0.31875 7.08333 0.708333 7.08333H7.225L5.87917 8.42917C5.60292 8.70542 5.60292 9.14458 5.87917 9.42083C6.15542 9.69708 6.59458 9.69708 6.87083 9.42083L9.41375 6.87792C9.69 6.60167 9.69 6.15542 9.41375 5.87917L6.87083 3.32917C6.59458 3.05292 6.15542 3.05292 5.87917 3.32917ZM12.75 11.3333H7.79167C7.40208 11.3333 7.08333 11.6521 7.08333 12.0417C7.08333 12.4312 7.40208 12.75 7.79167 12.75H12.75C13.5292 12.75 14.1667 12.1125 14.1667 11.3333V1.41667C14.1667 0.6375 13.5292 0 12.75 0H7.79167C7.40208 0 7.08333 0.31875 7.08333 0.708333C7.08333 1.09792 7.40208 1.41667 7.79167 1.41667H12.75V11.3333Z" fill="#535356"/>
</svg>
